<svg xmlns="http://www.w3.org/2000/svg" xmlns:xlink="http://www.w3.org/1999/xlink" version="1.1" width="256" height="256" viewBox="0 0 256 256" xml:space="preserve">

<defs>
</defs>
<g style="stroke: none; stroke-width: 0; stroke-dasharray: none; stroke-linecap: butt; stroke-linejoin: miter; stroke-miterlimit: 10; fill: none; fill-rule: nonzero; opacity: 1;" transform="translate(1.4065934065934016 1.4065934065934016) scale(2.81 2.81)" >
	<rect x="34.85" y="69.29" rx="0" ry="0" width="20.3" height="11.43" style="stroke: none; stroke-width: 1; stroke-dasharray: none; stroke-linecap: butt; stroke-linejoin: miter; stroke-miterlimit: 10; fill: rgb(0,176,255); fill-rule: nonzero; opacity: 1;" transform=" matrix(1 0 0 1 0 0) "/>
	<rect x="68.7" y="69.29" rx="0" ry="0" width="20.3" height="11.43" style="stroke: none; stroke-width: 1; stroke-dasharray: none; stroke-linecap: butt; stroke-linejoin: miter; stroke-miterlimit: 10; fill: rgb(0,176,255); fill-rule: nonzero; opacity: 1;" transform=" matrix(1 0 0 1 0 0) "/>
	<rect x="1" y="69.29" rx="0" ry="0" width="20.3" height="11.43" style="stroke: none; stroke-width: 1; stroke-dasharray: none; stroke-linecap: butt; stroke-linejoin: miter; stroke-miterlimit: 10; fill: rgb(0,176,255); fill-rule: nonzero; opacity: 1;" transform=" matrix(1 0 0 1 0 0) "/>
	<path d="M 11.152 70.294 c -0.552 0 -1 -0.447 -1 -1 v -34.75 c 0 -3.526 2.869 -6.394 6.395 -6.394 h 10.43 c 0.552 0 1 0.448 1 1 s -0.448 1 -1 1 h -10.43 c -2.423 0 -4.395 1.971 -4.395 4.394 v 34.75 C 12.152 69.847 11.704 70.294 11.152 70.294 z" style="stroke: none; stroke-width: 1; stroke-dasharray: none; stroke-linecap: butt; stroke-linejoin: miter; stroke-miterlimit: 10; fill: rgb(0,0,0); fill-rule: nonzero; opacity: 1;" transform=" matrix(1 0 0 1 0 0) " stroke-linecap="round" />
	<path d="M 78.848 70.294 c -0.553 0 -1 -0.447 -1 -1 v -34.75 c 0 -2.423 -1.971 -4.394 -4.394 -4.394 H 63.023 c -0.553 0 -1 -0.448 -1 -1 s 0.447 -1 1 -1 h 10.431 c 3.525 0 6.394 2.868 6.394 6.394 v 34.75 C 79.848 69.847 79.4 70.294 78.848 70.294 z" style="stroke: none; stroke-width: 1; stroke-dasharray: none; stroke-linecap: butt; stroke-linejoin: miter; stroke-miterlimit: 10; fill: rgb(0,0,0); fill-rule: nonzero; opacity: 1;" transform=" matrix(1 0 0 1 0 0) " stroke-linecap="round" />
	<path d="M 45 70.294 c -0.552 0 -1 -0.447 -1 -1 V 56.354 c 0 -0.553 0.448 -1 1 -1 s 1 0.447 1 1 v 12.939 C 46 69.847 45.552 70.294 45 70.294 z" style="stroke: none; stroke-width: 1; stroke-dasharray: none; stroke-linecap: butt; stroke-linejoin: miter; stroke-miterlimit: 10; fill: rgb(0,0,0); fill-rule: nonzero; opacity: 1;" transform=" matrix(1 0 0 1 0 0) " stroke-linecap="round" />
	<path d="M 55.152 81.723 H 34.848 c -0.552 0 -1 -0.447 -1 -1 V 69.294 c 0 -0.553 0.448 -1 1 -1 h 20.304 c 0.553 0 1 0.447 1 1 v 11.429 C 56.152 81.275 55.705 81.723 55.152 81.723 z M 35.848 79.723 h 18.304 v -9.429 H 35.848 V 79.723 z" style="stroke: none; stroke-width: 1; stroke-dasharray: none; stroke-linecap: butt; stroke-linejoin: miter; stroke-miterlimit: 10; fill: rgb(0,0,0); fill-rule: nonzero; opacity: 1;" transform=" matrix(1 0 0 1 0 0) " stroke-linecap="round" />
	<path d="M 89 81.723 H 68.696 c -0.553 0 -1 -0.447 -1 -1 V 69.294 c 0 -0.553 0.447 -1 1 -1 H 89 c 0.553 0 1 0.447 1 1 v 11.429 C 90 81.275 89.553 81.723 89 81.723 z M 69.696 79.723 H 88 v -9.429 H 69.696 V 79.723 z" style="stroke: none; stroke-width: 1; stroke-dasharray: none; stroke-linecap: butt; stroke-linejoin: miter; stroke-miterlimit: 10; fill: rgb(0,0,0); fill-rule: nonzero; opacity: 1;" transform=" matrix(1 0 0 1 0 0) " stroke-linecap="round" />
	<path d="M 21.304 81.723 H 1 c -0.552 0 -1 -0.447 -1 -1 V 69.294 c 0 -0.553 0.448 -1 1 -1 h 20.304 c 0.552 0 1 0.447 1 1 v 11.429 C 22.304 81.275 21.856 81.723 21.304 81.723 z M 2 79.723 h 18.304 v -9.429 H 2 V 79.723 z" style="stroke: none; stroke-width: 1; stroke-dasharray: none; stroke-linecap: butt; stroke-linejoin: miter; stroke-miterlimit: 10; fill: rgb(0,0,0); fill-rule: nonzero; opacity: 1;" transform=" matrix(1 0 0 1 0 0) " stroke-linecap="round" />
	<rect x="39.71" y="39.95" rx="0" ry="0" width="10.57" height="4.54" style="stroke: none; stroke-width: 1; stroke-dasharray: none; stroke-linecap: butt; stroke-linejoin: miter; stroke-miterlimit: 10; fill: rgb(239,231,239); fill-rule: nonzero; opacity: 1;" transform=" matrix(1 0 0 1 0 0) "/>
	<path d="M 47.85 49.022 H 42.15 c -1.346 0 -2.437 -1.091 -2.437 -2.437 v -2.098 h 10.572 v 2.098 C 50.286 47.931 49.195 49.022 47.85 49.022 z" style="stroke: none; stroke-width: 1; stroke-dasharray: none; stroke-linecap: butt; stroke-linejoin: miter; stroke-miterlimit: 10; fill: rgb(239,231,239); fill-rule: nonzero; opacity: 1;" transform=" matrix(1 0 0 1 0 0) " stroke-linecap="round" />
	<path d="M 45 39.953 h -5.526 c -0.608 0 -1.117 -0.461 -1.175 -1.066 c -0.364 -3.794 -1.706 -7.431 -3.757 -10.682 c -1.201 -1.904 -1.896 -4.158 -1.896 -6.575 c 0 -6.822 5.531 -12.353 12.353 -12.353 c 6.822 0 12.353 5.531 12.353 12.353 c 0 2.417 -0.695 4.672 -1.896 6.575 c -2.051 3.251 -3.393 6.888 -3.757 10.682 c -0.058 0.605 -0.567 1.066 -1.175 1.066 H 45" style="stroke: none; stroke-width: 1; stroke-dasharray: none; stroke-linecap: butt; stroke-linejoin: miter; stroke-miterlimit: 10; fill: rgb(250,184,0); fill-rule: nonzero; opacity: 1;" transform=" matrix(1 0 0 1 0 0) " stroke-linecap="round" />
	<path d="M 50.286 45.488 H 39.714 c -0.552 0 -1 -0.448 -1 -1 v -4.535 c 0 -0.552 0.448 -1 1 -1 h 10.572 c 0.553 0 1 0.448 1 1 v 4.535 C 51.286 45.04 50.839 45.488 50.286 45.488 z M 40.714 43.488 h 8.572 v -2.535 h -8.572 V 43.488 z" style="stroke: none; stroke-width: 1; stroke-dasharray: none; stroke-linecap: butt; stroke-linejoin: miter; stroke-miterlimit: 10; fill: rgb(0,0,0); fill-rule: nonzero; opacity: 1;" transform=" matrix(1 0 0 1 0 0) " stroke-linecap="round" />
	<path d="M 47.85 50.022 H 42.15 c -1.895 0 -3.437 -1.542 -3.437 -3.437 v -2.098 c 0 -0.552 0.448 -1 1 -1 h 10.572 c 0.553 0 1 0.448 1 1 v 2.098 C 51.286 48.48 49.744 50.022 47.85 50.022 z M 40.714 45.488 v 1.098 c 0 0.792 0.645 1.437 1.437 1.437 h 5.699 c 0.792 0 1.437 -0.645 1.437 -1.437 v -1.098 H 40.714 z" style="stroke: none; stroke-width: 1; stroke-dasharray: none; stroke-linecap: butt; stroke-linejoin: miter; stroke-miterlimit: 10; fill: rgb(0,0,0); fill-rule: nonzero; opacity: 1;" transform=" matrix(1 0 0 1 0 0) " stroke-linecap="round" />
	<path d="M 50.525 40.953 H 39.475 c -1.13 0 -2.063 -0.847 -2.17 -1.971 c -0.335 -3.49 -1.583 -7.033 -3.607 -10.243 c -1.341 -2.127 -2.05 -4.585 -2.05 -7.109 c 0 -7.363 5.99 -13.353 13.353 -13.353 c 7.362 0 13.353 5.99 13.353 13.353 c 0 2.525 -0.709 4.983 -2.05 7.109 c -2.024 3.209 -3.271 6.751 -3.607 10.244 C 52.589 40.106 51.655 40.953 50.525 40.953 z M 45 10.277 c -6.26 0 -11.353 5.093 -11.353 11.353 c 0 2.146 0.603 4.235 1.742 6.042 c 2.191 3.473 3.542 7.318 3.907 11.119 c 0.009 0.092 0.086 0.162 0.179 0.162 h 11.051 c 0.094 0 0.171 -0.069 0.18 -0.161 c 0.364 -3.803 1.716 -7.648 3.906 -11.121 c 1.139 -1.805 1.741 -3.895 1.741 -6.042 C 56.353 15.37 51.26 10.277 45 10.277 z" style="stroke: none; stroke-width: 1; stroke-dasharray: none; stroke-linecap: butt; stroke-linejoin: miter; stroke-miterlimit: 10; fill: rgb(0,0,0); fill-rule: nonzero; opacity: 1;" transform=" matrix(1 0 0 1 0 0) " stroke-linecap="round" />
	<path d="M 52.508 22.63 c -0.553 0 -1 -0.448 -1 -1 c 0 -1.902 -0.765 -3.666 -2.152 -4.967 s -3.204 -1.949 -5.109 -1.827 c -0.542 0.037 -1.026 -0.382 -1.062 -0.934 c -0.035 -0.551 0.383 -1.026 0.934 -1.062 c 2.459 -0.164 4.81 0.681 6.605 2.364 c 1.77 1.659 2.784 4.001 2.784 6.426 C 53.508 22.183 53.061 22.63 52.508 22.63 z" style="stroke: none; stroke-width: 1; stroke-dasharray: none; stroke-linecap: butt; stroke-linejoin: miter; stroke-miterlimit: 10; fill: rgb(0,0,0); fill-rule: nonzero; opacity: 1;" transform=" matrix(1 0 0 1 0 0) " stroke-linecap="round" />
</g>
</svg>