<svg xmlns="http://www.w3.org/2000/svg" viewBox="0 0 960.43 408.79"><defs><style>.cls-1{fill:#f3f7f8;}.cls-2{fill:#ffa783;}.cls-3{fill:#f4cec6;}.cls-4{fill:#cfe0f3;}.cls-5{fill:none;}.cls-6{fill:#f5916f;}.cls-7{fill:#f4c0b3;}.cls-8{fill:#bcc6d0;}.cls-9{fill:#1b2135;}.cls-10{fill:#cdd7e0;}.cls-11{fill:#fff;}.cls-12{fill:#384159;}.cls-13{fill:#0d111c;}.cls-14{fill:#dfeaf4;}.cls-15{fill:#c0d2e2;}.cls-16{fill:#a6d14a;}</style></defs><title>Asset 3</title><g id="Layer_2" data-name="Layer 2"><g id="graphics"><ellipse class="cls-1" cx="361.27" cy="146.2" rx="5.13" ry="3.13"/><path class="cls-2" d="M307.71,127.48a6.77,6.77,0,0,1-6.86,6.68h0a6.77,6.77,0,0,1-6.86-6.68v-.08c2.45-4.62,11.27-4.62,13.73,0Z"/><path class="cls-2" d="M323.66,127.48a6.77,6.77,0,0,1-6.87,6.68h0a6.77,6.77,0,0,1-6.86-6.68v-.08c2.46-4.62,11.27-4.62,13.73,0Z"/><path class="cls-2" d="M339.61,127.48a6.77,6.77,0,0,1-6.86,6.68h0a6.77,6.77,0,0,1-6.86-6.68v-.08c2.45-4.62,11.27-4.62,13.73,0Z"/><path class="cls-2" d="M355.56,127.48a6.77,6.77,0,0,1-6.87,6.68h0a6.77,6.77,0,0,1-6.86-6.68v-.08c2.46-4.62,11.27-4.62,13.73,0Z"/><path class="cls-3" d="M327.15,125.82a7,7,0,0,0,11.18,0A9.25,9.25,0,0,0,327.15,125.82Z"/><path class="cls-3" d="M343.1,125.82a7,7,0,0,0,11.18,0A9.25,9.25,0,0,0,343.1,125.82Z"/><path class="cls-3" d="M311.2,125.82a7,7,0,0,0,11.18,0A9.25,9.25,0,0,0,311.2,125.82Z"/><path class="cls-3" d="M295.25,125.82a7,7,0,0,0,11.18,0A9.25,9.25,0,0,0,295.25,125.82Z"/><path class="cls-2" d="M300.84,133.05a5.66,5.66,0,0,1-5.72-5.37c1.19-1.94,3.71-2.64,5.73-2.64s4.53.7,5.72,2.63A5.68,5.68,0,0,1,300.84,133.05Z"/><path class="cls-2" d="M316.79,133.05a5.67,5.67,0,0,1-5.72-5.37c1.19-1.94,3.71-2.64,5.73-2.64s4.53.7,5.72,2.63A5.68,5.68,0,0,1,316.79,133.05Z"/><path class="cls-2" d="M332.74,133.05a5.66,5.66,0,0,1-5.73-5.37c1.19-1.94,3.71-2.64,5.73-2.64s4.53.7,5.72,2.63A5.68,5.68,0,0,1,332.74,133.05Z"/><path class="cls-2" d="M348.69,133.05a5.67,5.67,0,0,1-5.73-5.37c1.19-1.94,3.71-2.64,5.73-2.64s4.53.7,5.72,2.63A5.68,5.68,0,0,1,348.69,133.05Z"/><rect class="cls-4" x="254.69" y="130.8" width="122.86" height="74.86"/><rect class="cls-1" x="262.2" y="137.74" width="37.21" height="47.28"/><rect class="cls-5" x="262.2" y="137.74" width="37.21" height="47.28"/><rect class="cls-1" x="306.33" y="141.02" width="26.71" height="4.94"/><rect class="cls-1" x="306.33" y="150.32" width="35.78" height="4.94"/><rect class="cls-1" x="306.33" y="168.23" width="62.49" height="4.94"/><rect class="cls-1" x="306.33" y="177.94" width="62.49" height="4.94"/><rect class="cls-1" x="261.1" y="190.85" width="66.64" height="4.94"/><rect class="cls-1" x="333.84" y="190.85" width="36.21" height="4.94"/><rect class="cls-2" x="308.21" y="221.07" width="29.7" height="46.53"/><rect class="cls-2" x="308.21" y="221.07" width="29.7" height="46.53"/><path class="cls-2" d="M350.09,205.66H299.95l-27.11-3.31c-11.09-2-11.7,11-7.77,11.1,11.65.21,17.92,3,26.71,4.2,10.08,1.41,16.18,6.8,16.42,15.93h0v34h29.7V232.89c.14-2.34,0-7.37,2.2-9.42A60.8,60.8,0,0,0,350.09,205.66Z"/><path class="cls-2" d="M350.09,205.66H299.95l-27.11-3.31c-11.09-2-11.7,11-7.77,11.1,11.65.21,17.92,3,26.71,4.2,10.08,1.41,16.18,6.8,16.42,15.93h0v34h29.7V232.89c.14-2.34,0-7.37,2.2-9.42A60.8,60.8,0,0,0,350.09,205.66Z"/><path class="cls-2" d="M350.09,205.66H299.95l-27.11-3.31c-11.09-2-11.7,11-7.77,11.1,11.65.21,17.92,3,26.71,4.2,10.08,1.41,16.18,6.8,16.42,15.93h0v34h29.7V232.89c.14-2.34,0-7.37,2.2-9.42A60.8,60.8,0,0,0,350.09,205.66Z"/><path class="cls-6" d="M338.13,228.91a13,13,0,0,1,.89-3.84h0a30.34,30.34,0,0,1-32.8.89,16.1,16.1,0,0,1,2,7.62h0V253H310S309.32,236.36,338.13,228.91Z"/><path class="cls-7" d="M275.72,211.07a3.72,3.72,0,0,0-.8-.22l-5.24-.83a3.61,3.61,0,0,0-4.15,2.91l0,.18a63.68,63.68,0,0,1,9.64,1.31Z"/><rect class="cls-1" x="306.57" y="241.27" width="32.46" height="13.98"/><path class="cls-8" d="M343.06,247.76H300.61c.71,27-10.36,74.68-24.66,88.94a9.15,9.15,0,0,1-4.68,2.85c-8.43-4-51.58-57.79-76.72-75.62C178.95,252.86,138,244.75,138,244.75L92.47,244a57.28,57.28,0,0,0-11.92,1h0c-14.07,1.43-45.31,9-55.75,20.09C-10.6,302.55,2.26,403.37,2.34,408.79H192.89v-72c37.39,32.92,56.48,49.46,76.67,49.47h0a56.63,56.63,0,0,0,40.7-17.07c15.32-15.28,25.45-40.88,30.11-76.07A319.81,319.81,0,0,0,343.06,247.76Z"/><path class="cls-2" d="M138.7,249.33c-1.69,26.37-50,26.37-51.66,0V188.27H138.7Z"/><path class="cls-6" d="M87,247.38c29-4.36,44-13,51.66-20.29V188.27H87Z"/><ellipse class="cls-6" cx="22.77" cy="136.58" rx="17.34" ry="16.86"/><ellipse class="cls-6" cx="202.96" cy="136.58" rx="17.34" ry="16.86"/><path class="cls-2" d="M112.86,35c-53.69.11-97.19,38.5-97.19,91.26,0,54.94,61.43,104.49,97.19,104.49,41.89,0,97.19-56.11,97.19-104.49C210.05,73.45,166.56,35.07,112.86,35Z"/><ellipse class="cls-9" cx="73.07" cy="136.44" rx="5.77" ry="5.61"/><ellipse class="cls-9" cx="152.66" cy="136.44" rx="5.77" ry="5.61"/><path class="cls-6" d="M109.22,163.61a23.77,23.77,0,0,1-4.83-.52l.58-2.64c7.76,1.62,12.05-1.51,13.36-2.7L110.9,125l2.71-.58,7.72,34-.42.5C120.74,159.22,117,163.61,109.22,163.61Z"/><path class="cls-9" d="M60.08,116.41l22.09-3.23a2.77,2.77,0,0,1,3.16,2.27A2.71,2.71,0,0,1,83,118.52l-.28,0-22.31,1.09a1.62,1.62,0,0,1-.33-3.22Z"/><path class="cls-9" d="M141.79,116.41l22.09-3.23a2.77,2.77,0,0,1,3.16,2.27,2.71,2.71,0,0,1-2.33,3.07l-.27,0-22.31,1.09a1.62,1.62,0,0,1-.33-3.22Z"/><path class="cls-9" d="M15.26,127.91c10.58-3.82,10.33-8.72,13.66-30.41,5.43-35.38,56.29-39.75,137.4-20.29C231,92.72,205.46,8,186.25,1c-12.17-4.41-43.89,6.75-67,14.5-25.31,8.47-11.5-11.35-30-7.41C-12.16,29.72,15.26,127.91,15.26,127.91Z"/><path class="cls-9" d="M196.43,65c18.94,17.32,19.71,61.66,15,62.95s-3.65-50.31-26.85-54.43C176.49,72,196.43,65,196.43,65Z"/><path class="cls-6" d="M112.86,196h0c-6,0-10.93-2.27-12.56-5.78a1.33,1.33,0,0,1,.69-1.78,1.4,1.4,0,0,1,1.84.68c1.16,2.51,5.19,4.19,10,4.19h0c4.83,0,8.86-1.68,10-4.19a1.4,1.4,0,0,1,1.83-.67,1.33,1.33,0,0,1,.69,1.78C123.79,193.69,118.86,196,112.86,196Z"/><path class="cls-10" d="M44.27,408.73c0-.74-2.23-74.45,2.33-90.64l-3.47-.92c-4.68,16.62-2.57,88-2.46,91.62Z"/><path class="cls-11" d="M87,241.12l-9.15,1.93L94,283l17.61-12.51L128.47,283s18.54-36.91,19.94-38l-9.72-2.36s-17.78,25.47-27,25C102.8,267.16,87,241.12,87,241.12Z"/><path class="cls-12" d="M167.07,66.12a1.19,1.19,0,0,1-1.17-.92,1.17,1.17,0,0,1,.92-1.38C185.45,60,190,45,191.15,38.74c2.07-11.71-1.77-23.4-9.13-27.79a1.15,1.15,0,0,1-.39-1.6A1.22,1.22,0,0,1,183.27,9c8.16,4.88,12.47,17.57,10.24,30.18-2.51,14.21-12.06,24-26.19,27Z"/><path class="cls-12" d="M142,61.62l-1.67,0a1.17,1.17,0,1,1,.06-2.33c11.19.28,19.72-2.32,25.41-7.71a23.1,23.1,0,0,0,7-16.61,1.2,1.2,0,0,1,2.4,0,25.41,25.41,0,0,1-7.76,18.28C161.61,58.81,153,61.62,142,61.62Z"/><path class="cls-8" d="M280.17,173.66l-2.36,0a7.82,7.82,0,0,0-1.62.14c-1.92.2-6.17,1.23-7.6,2.74-1.86,2-2.74,5.23-3.12,8.52h29.42c-.38-3.3-1.26-6.55-3.12-8.52-1.42-1.51-5.68-2.54-7.6-2.74a7.82,7.82,0,0,0-1.62-.14Z"/><path class="cls-2" d="M284.1,174.35c-.23,3.59-6.81,3.59-7,0V166h7Z"/><path class="cls-6" d="M277.06,174.08c4-.59,6-1.77,7-2.77V166h-7Z"/><ellipse class="cls-6" cx="268.3" cy="158.98" rx="2.36" ry="2.3"/><ellipse class="cls-6" cx="292.86" cy="158.98" rx="2.36" ry="2.3"/><path class="cls-2" d="M280.58,145.13c-7.32,0-13.24,5.25-13.24,12.44,0,7.49,8.37,14.24,13.24,14.24,5.71,0,13.24-7.65,13.24-14.24C293.83,150.38,287.9,145.15,280.58,145.13Z"/><ellipse class="cls-9" cx="275.16" cy="158.96" rx="0.79" ry="0.76"/><ellipse class="cls-9" cx="286" cy="158.96" rx="0.79" ry="0.76"/><path class="cls-6" d="M280.08,162.67a3.29,3.29,0,0,1-.66-.07l.08-.36a2,2,0,0,0,1.82-.37l-1-4.46.37-.08,1.05,4.64-.06.07A2.1,2.1,0,0,1,280.08,162.67Z"/><path class="cls-9" d="M273.39,156.23l3-.44a.38.38,0,0,1,.43.31.37.37,0,0,1-.32.42h0l-3,.15a.22.22,0,0,1,0-.44Z"/><path class="cls-9" d="M284.52,156.23l3-.44a.38.38,0,0,1,.43.31.37.37,0,0,1-.32.42h0l-3,.15a.22.22,0,0,1,0-.44Z"/><path class="cls-9" d="M267.28,157.8c1.44-.52,1.41-1.19,1.86-4.14.74-4.82,7.67-5.42,18.73-2.77,8.81,2.11,5.33-9.44,2.72-10.38-1.66-.6-6,.92-9.14,2-3.45,1.16-1.57-1.55-4.09-1C263.54,144.42,267.28,157.8,267.28,157.8Z"/><path class="cls-9" d="M292,149.22c2.58,2.36,2.69,8.4,2,8.58s-.5-6.86-3.66-7.42C289.25,150.19,292,149.22,292,149.22Z"/><path class="cls-6" d="M280.58,167.08h0a1.83,1.83,0,0,1-1.71-.79A.18.18,0,0,1,279,166a.19.19,0,0,1,.25.09,1.5,1.5,0,0,0,1.37.57h0a1.5,1.5,0,0,0,1.37-.57.19.19,0,0,1,.25-.09.18.18,0,0,1,.09.24A1.83,1.83,0,0,1,280.58,167.08Z"/><path class="cls-11" d="M277.06,173.23l-1.25.26,2.35,5.28,2.24-1.55,2.3,1.55s2.53-4.87,2.72-5l-1.32-.32s-2.42,3.47-3.69,3.41S277.06,173.23,277.06,173.23Z"/><path class="cls-12" d="M288,149.38a.16.16,0,0,1-.16-.13.16.16,0,0,1,.13-.19,4.1,4.1,0,0,0,3.32-3.42,3.72,3.72,0,0,0-1.24-3.79.16.16,0,0,1-.05-.22.17.17,0,0,1,.22-.05,4,4,0,0,1,1.39,4.11,4.38,4.38,0,0,1-3.57,3.67Z"/><path class="cls-12" d="M284.55,148.77h-.23a.16.16,0,0,1-.16-.16.16.16,0,0,1,.17-.16,4.7,4.7,0,0,0,3.46-1,3.15,3.15,0,0,0,1-2.26.16.16,0,0,1,.33,0,3.47,3.47,0,0,1-1.06,2.49A4.89,4.89,0,0,1,284.55,148.77Z"/><polygon class="cls-9" points="768.67 329.19 739.19 329.19 709.71 329.19 684.29 397.44 739.19 397.44 794.09 397.44 768.67 329.19"/><polygon class="cls-13" points="741.52 396.56 793.94 396.56 782.23 365.36 768.67 329.71 709.71 329.71 709.43 329.99 698.17 359.98 741.52 396.56"/><path class="cls-9" d="M952.35,341a27.88,27.88,0,0,1-19.81,7.84H543.76A28.11,28.11,0,0,1,523.84,341a26.42,26.42,0,0,1-8.19-19.25V75.9H960.43V321.75A26.33,26.33,0,0,1,952.35,341Z"/><path class="cls-9" d="M952.35,52.54a27.86,27.86,0,0,0-19.81-7.87H543.76a28.11,28.11,0,0,0-19.92,7.88,26.46,26.46,0,0,0-8.19,19.27V317.63H960.43V71.82A26.34,26.34,0,0,0,952.35,52.54Z"/><path class="cls-14" d="M524.86,308.65V71.82a17.77,17.77,0,0,1,5.47-13,18.84,18.84,0,0,1,13.43-5.27H932.55a19,19,0,0,1,13.53,5.27,17.81,17.81,0,0,1,5.57,13V308.65Z"/><path class="cls-11" d="M530.91,302.76V71.82a11.92,11.92,0,0,1,3.7-8.86,12.66,12.66,0,0,1,9.16-3.56H932.55A12.76,12.76,0,0,1,941.8,63a12,12,0,0,1,3.81,8.86V302.76Z"/><rect class="cls-9" x="646.47" y="396.28" width="185.52" height="11.57"/><path class="cls-15" d="M890,329.71a6.4,6.4,0,1,1-6.4-6.23A6.32,6.32,0,0,1,890,329.71Z"/><path class="cls-15" d="M910.3,329.71a6.4,6.4,0,1,1-6.39-6.23A6.31,6.31,0,0,1,910.3,329.71Z"/><ellipse class="cls-15" cx="924.24" cy="329.71" rx="6.4" ry="6.22"/><rect class="cls-4" x="713.71" y="115.22" width="49.83" height="10.77"/><rect class="cls-4" x="772.46" y="115.22" width="86.48" height="10.77"/><rect class="cls-4" x="713.71" y="136.98" width="49.83" height="10.77"/><rect class="cls-4" x="772.46" y="136.98" width="86.48" height="10.77"/><rect class="cls-15" x="713.71" y="158.75" width="192.27" height="10.77"/><rect class="cls-4" x="713.71" y="180.51" width="192.27" height="10.77"/><rect class="cls-15" x="713.71" y="93.45" width="91.21" height="10.77"/><rect class="cls-4" x="570.11" y="221.76" width="94.06" height="52.15"/><rect class="cls-4" x="691.01" y="221.76" width="94.06" height="52.15"/><rect class="cls-4" x="811.91" y="221.76" width="94.06" height="52.15"/><ellipse class="cls-11" cx="616.83" cy="247.83" rx="20.83" ry="20.25"/><path class="cls-16" d="M616.83,258.44a3.64,3.64,0,0,1-2.77-1.27l-9.18-10.79,5.54-4.46,6,7.06L623,238.86l6.09,3.71-9.18,14.23a3.61,3.61,0,0,1-2.81,1.63Z"/><rect class="cls-4" x="570.11" y="91.99" width="94.06" height="99.3"/><path class="cls-8" d="M615.11,168.36l-4.76-.08a15.6,15.6,0,0,0-3.27.29c-3.86.39-12.43,2.48-15.29,5.51-3.75,4-5.52,10.52-6.28,17.15h59.19c-.77-6.64-2.54-13.19-6.28-17.15-2.86-3-11.43-5.11-15.29-5.51a15.61,15.61,0,0,0-3.27-.29Z"/><path class="cls-2" d="M623,169.75c-.46,7.23-13.7,7.23-14.17,0V153H623Z"/><path class="cls-6" d="M608.86,169.22c8-1.19,12.06-3.57,14.17-5.57V153H608.86Z"/><ellipse class="cls-6" cx="591.24" cy="138.84" rx="4.75" ry="4.63"/><ellipse class="cls-6" cx="640.65" cy="138.84" rx="4.76" ry="4.63"/><path class="cls-2" d="M615.94,111c-14.72,0-26.65,10.56-26.65,25,0,15.06,16.85,28.65,26.65,28.65,11.49,0,26.65-15.39,26.65-28.65C642.59,121.53,630.67,111,615.94,111Z"/><ellipse class="cls-9" cx="605.03" cy="138.8" rx="1.58" ry="1.54"/><ellipse class="cls-9" cx="626.85" cy="138.8" rx="1.58" ry="1.54"/><path class="cls-6" d="M614.94,146.25a6.61,6.61,0,0,1-1.33-.14l.16-.73a4,4,0,0,0,3.66-.74l-2-9,.74-.16,2.12,9.33-.12.14A4.2,4.2,0,0,1,614.94,146.25Z"/><path class="cls-9" d="M601.47,133.3l6.06-.89a.76.76,0,0,1,.87.62.74.74,0,0,1-.64.84h-.07l-6.12.3a.44.44,0,0,1-.09-.88Z"/><path class="cls-9" d="M623.87,133.3l6.05-.89a.75.75,0,0,1,.87.62.73.73,0,0,1-.64.84h-.08l-6.12.3a.44.44,0,0,1-.09-.88Z"/><path class="cls-9" d="M589.18,136.46c2.9-1,2.83-2.39,3.75-8.34,1.49-9.71,15.44-10.9,37.68-5.57,17.73,4.25,10.73-19,5.46-20.89-3.34-1.21-12,1.85-18.38,4-6.94,2.33-3.15-3.11-8.22-2C581.66,109.53,589.18,136.46,589.18,136.46Z"/><path class="cls-9" d="M638.86,119.2c5.19,4.75,5.4,16.91,4.11,17.26s-1-13.79-7.36-14.92C633.39,121.14,638.86,119.2,638.86,119.2Z"/><path class="cls-6" d="M615.94,155.12h0c-1.64,0-3-.62-3.44-1.59a.36.36,0,0,1,.19-.49.39.39,0,0,1,.5.19,3,3,0,0,0,2.75,1.15h0a3,3,0,0,0,2.75-1.15.39.39,0,0,1,.5-.19.36.36,0,0,1,.19.49C618.94,154.5,617.59,155.12,615.94,155.12Z"/><path class="cls-11" d="M608.86,167.5l-2.51.53,4.74,10.62,4.5-3.11,4.63,3.11s5.09-9.8,5.47-10.11L623,167.9s-4.87,7-7.41,6.86S608.86,167.5,608.86,167.5Z"/><path class="cls-12" d="M630.81,119.52a.32.32,0,0,1-.32-.25.32.32,0,0,1,.25-.38,8.24,8.24,0,0,0,6.67-6.88c.57-3.21-.49-6.42-2.5-7.62a.31.31,0,0,1-.11-.44.33.33,0,0,1,.45-.1c2.24,1.33,3.42,4.82,2.81,8.27a8.81,8.81,0,0,1-7.18,7.39Z"/><path class="cls-12" d="M623.93,118.28h-.46a.32.32,0,0,1-.32-.33.33.33,0,0,1,.34-.31c3.07.08,5.41-.63,7-2.11a6.34,6.34,0,0,0,1.93-4.56.33.33,0,0,1,.65,0,7,7,0,0,1-2.12,5C629.31,117.51,627,118.28,623.93,118.28Z"/></g></g></svg>