<svg xmlns="http://www.w3.org/2000/svg" version="1.1" xmlns:xlink="http://www.w3.org/1999/xlink" xmlns:svgjs="http://svgjs.com/svgjs" width="1440" height="150" preserveAspectRatio="none" viewBox="0 0 1440 150"><g mask="url(&quot;#SvgjsMask1850&quot;)" fill="none"><rect width="1440" height="150" x="0" y="0" fill="url(#SvgjsLinearGradient1851)"></rect><path d="M2 150L152 0L500 0L350 150z" fill="url(#SvgjsLinearGradient1852)"></path><path d="M248.60000000000002 150L398.6 0L706.1 0L556.1 150z" fill="url(#SvgjsLinearGradient1852)"></path><path d="M514.2 150L664.2 0L824.7 0L674.7 150z" fill="url(#SvgjsLinearGradient1852)"></path><path d="M740.8000000000001 150L890.8000000000001 0L1142.8000000000002 0L992.8000000000001 150z" fill="url(#SvgjsLinearGradient1852)"></path><path d="M1435 150L1285 0L1153 0L1303 150z" fill="url(#SvgjsLinearGradient1853)"></path><path d="M1190.4 150L1040.4 0L839.4000000000001 0L989.4000000000001 150z" fill="url(#SvgjsLinearGradient1853)"></path><path d="M929.8 150L779.8 0L680.8 0L830.8 150z" fill="url(#SvgjsLinearGradient1853)"></path><path d="M696.1999999999999 150L546.1999999999999 0L202.69999999999993 0L352.69999999999993 150z" fill="url(#SvgjsLinearGradient1853)"></path><path d="M1307.5133266114633 150L1440 17.513326611463356L1440 150z" fill="url(#SvgjsLinearGradient1852)"></path><path d="M0 150L132.48667338853664 150L 0 17.513326611463356z" fill="url(#SvgjsLinearGradient1853)"></path></g><defs><mask id="SvgjsMask1850"><rect width="1440" height="150" fill="#ffffff"></rect></mask><linearGradient x1="22.4%" y1="-215%" x2="77.6%" y2="315%" gradientUnits="userSpaceOnUse" id="SvgjsLinearGradient1851"><stop stop-color="rgba(14, 42, 71, 1)" offset="0"></stop><stop stop-color="rgba(101, 159, 235, 1)" offset="0.75"></stop></linearGradient><linearGradient x1="0%" y1="100%" x2="100%" y2="0%" id="SvgjsLinearGradient1852"><stop stop-color="rgba(15, 70, 185, 0.2)" offset="0"></stop><stop stop-opacity="0" stop-color="rgba(15, 70, 185, 0.2)" offset="0.66"></stop></linearGradient><linearGradient x1="100%" y1="100%" x2="0%" y2="0%" id="SvgjsLinearGradient1853"><stop stop-color="rgba(15, 70, 185, 0.2)" offset="0"></stop><stop stop-opacity="0" stop-color="rgba(15, 70, 185, 0.2)" offset="0.66"></stop></linearGradient></defs></svg>